<svg xmlns="http://www.w3.org/2000/svg" width="600" height="685.038" viewBox="0 0 600 685.038"><radialGradient id="a" cx="89.123" cy="1027.56" r="53.929" fx="53.015" fy="987.503" gradientTransform="matrix(1 0 0 -1.13463 0 1415.999)" gradientUnits="userSpaceOnUse"><stop offset=".23" stop-color="#32b4df"/><stop offset=".369" stop-color="#30afd9"/><stop offset=".553" stop-color="#2a9fc8"/><stop offset=".762" stop-color="#2186ad"/><stop offset=".989" stop-color="#156487"/><stop offset="1" stop-color="#146285"/></radialGradient><path d="M123.823 284.332C114.5 293.647 102.937 298.3 89.13 298.3c-13.218 0-24.64-4.802-34.244-14.416-9.619-9.604-14.421-21.025-14.421-34.244 0-13.807 4.652-25.228 13.972-34.243 9.305-9.006 20.866-13.508 34.693-13.508 13.807 0 25.369 4.502 34.693 13.508 9.305 9.015 13.957 20.436 13.957 34.243 0 13.828-4.652 25.389-13.957 34.693z" fill="url(#a)"/><circle cx="73.292" cy="233.137" r="17.064" opacity=".54" fill="#fff"/><path d="M131.19 664.617c-4.111-.912-7.66-2.401-10.623-4.453-2.978-2.059-4.923-5.372-5.835-9.946V343.696h-4.11l-92.58 30.172v4.11c6.398 2.295 12.454 4.803 18.175 7.546 5.706 2.743 10.63 5.485 14.74 8.228 3.196 2.295 5.148 4.802 5.832 7.545s1.034 5.942 1.034 9.597V646.1c0 4.118-1.49 7.545-4.464 10.288-2.979 2.743-6.634 4.916-10.972 6.52-4.354 1.602-9.254 2.742-14.74 3.426a388.768 388.768 0 0 1-16.458 1.71v6.86h147.437v-6.86a97.07 97.07 0 0 0-14.064-1.71c-4.794-.228-9.254-.79-13.372-1.717zM371.479 647.4c-2.304-1.644-3.696-3.117-4.187-4.439-.492-1.305-.738-3.275-.738-5.912V442.426h-82.781v5.421a392.97 392.97 0 0 1 20.942 2.463c6.726.988 12.071 2.303 16.013 3.941 1.97 2.637 3.281 6.491 3.942 11.58.655 5.099.988 9.286.988 12.567V618.82a126.285 126.285 0 0 1-9.663 11.334 69.978 69.978 0 0 1-11.389 9.609c-4.127 2.795-8.746 5.094-13.856 6.895-5.12 1.813-11.148 2.714-18.076 2.714-18.153 0-30.535-5.176-37.14-15.522-6.607-10.35-9.899-26.363-9.899-48.043v-143.38h-75.88v5.42c2.958.333 6.076.579 9.363.737 3.28.17 6.403.579 9.363 1.234 2.953.66 5.66 1.649 8.129 2.954 2.462 1.32 4.345 3.45 5.666 6.41.65.982 1.06 2.543 1.229 4.678.164 2.14.41 4.433.742 6.9.323 2.463.492 4.849.492 7.141v125.644c0 23.984 5 42.212 15.024 54.693 10.018 12.49 25.54 18.726 46.564 18.726 9.193 0 17.814-1.48 25.867-4.439 8.047-2.953 15.351-6.972 21.93-12.07a116.535 116.535 0 0 0 17.738-16.996c5.246-6.24 9.685-12.153 13.3-17.738l.496.492v49.763h3.445l69.968-12.808v-2.96c-3.942-1.637-8.79-3.772-14.533-6.403-5.754-2.626-10.1-4.76-13.06-6.404zm212.779-286.252l.956-1.848L600 330.175H478.653v-70.552h-5.417l-98.785 93.942v7.584h50.03c0 12.556-.064 25.875-.128 39.96-.127 19.63-.318 40.725-.573 63.223-.447 38.622-.638 79.41-.638 122.43 0 .383 0 .765.064 1.147-.064 12.747-.064 25.685-.064 38.813 0 7.33 2.103 14.531 6.437 21.605 4.27 7.138 9.815 13.512 16.57 19.184 6.757 5.736 14.595 10.07 23.39 13.065 8.796 2.996 18.037 4.462 27.66 4.462 14.595 0 27.278-1.72 38.049-5.163 10.707-3.441 20.076-8.221 28.106-14.403 7.967-6.182 14.403-13.001 19.183-20.586 4.78-7.52 8.604-14.722 11.345-21.542l-4.143-2.102c-6.373 9.177-13.958 15.932-22.625 20.267-8.667 4.333-19.63 6.5-32.886 6.5-7.776 0-14.786-1.211-21.16-3.76-6.755-2.55-12.746-6.628-17.972-12.046-10.07-10.515-15.04-27.404-15.04-50.73V361.148h104.202z"/><path d="M0 480.666C429.268 357.724 583.87 80.59 583.87 80.59V0C401.309 345.388 0 480.666 0 480.666z" fill="#dd0506"/></svg>